<?xml version="1.0" encoding="UTF-8"?>
<!DOCTYPE svg PUBLIC "-//W3C//DTD SVG 1.1//EN" "http://www.w3.org/Graphics/SVG/1.1/DTD/svg11.dtd">
<svg xmlns="http://www.w3.org/2000/svg" version="1.1" width="1536px" height="1536px" viewBox="180 170 680 680" style="shape-rendering:geometricPrecision; text-rendering:geometricPrecision; image-rendering:optimizeQuality; fill-rule:evenodd; clip-rule:evenodd" xmlns:xlink="http://www.w3.org/1999/xlink">
<g><path style="opacity:1" fill="#f28219" d="M 574.5,537.5 C 575.675,537.719 576.675,537.386 577.5,536.5C 575.364,535.207 573.364,535.207 571.5,536.5C 545.139,536.103 522.973,545.436 505,564.5C 489.838,585.804 487.671,608.471 498.5,632.5C 485.021,629.217 475.521,620.884 470,607.5C 459.809,572.39 463.975,539.057 482.5,507.5C 467.039,513.805 456.206,525.139 450,541.5C 447.928,547.048 446.262,552.715 445,558.5C 442.808,578.038 439.475,597.372 435,616.5C 429.274,633.06 418.107,644.06 401.5,649.5C 401.167,649.333 400.833,649.167 400.5,649C 410.865,629.101 414.698,607.935 412,585.5C 410.945,576.615 408.945,567.948 406,559.5C 397.937,539.311 390.271,518.978 383,498.5C 374.502,456.659 386.669,422.159 419.5,395C 445.996,375.273 475.662,362.939 508.5,358C 484.742,350.702 460.742,349.702 436.5,355C 392.138,369.507 366.971,400.007 361,446.5C 360.333,455.5 360.333,464.5 361,473.5C 362.592,483.927 364.259,494.26 366,504.5C 337.593,453.993 331.593,400.993 348,345.5C 353.606,330.281 361.273,316.281 371,303.5C 369.138,272.466 375.805,243.466 391,216.5C 392.113,214.671 393.613,213.837 395.5,214C 408.157,226.816 419.49,240.649 429.5,255.5C 435.137,256.663 440.804,256.83 446.5,256C 456.629,242.201 468.963,230.868 483.5,222C 486.971,219.928 490.638,218.428 494.5,217.5C 495.118,240.297 497.118,262.964 500.5,285.5C 503.817,288.806 506.651,292.472 509,296.5C 512.093,304.788 515.76,312.788 520,320.5C 529.272,330.537 540.106,338.204 552.5,343.5C 546.78,352.034 539.113,358.201 529.5,362C 516.56,367.068 503.227,370.568 489.5,372.5C 493.217,390.761 502.217,405.928 516.5,418C 523.479,423.823 530.812,429.156 538.5,434C 561.659,446.079 584.659,458.412 607.5,471C 629.683,484.339 647.849,501.839 662,523.5C 678.683,552.002 683.349,582.336 676,614.5C 668.072,636.393 652.572,649.226 629.5,653C 610.628,654.847 591.961,653.513 573.5,649C 556.471,644.268 539.471,639.435 522.5,634.5C 506.243,601.698 512.577,574.198 541.5,552C 551.559,544.969 562.559,540.136 574.5,537.5 Z"/></g>
<g><path style="opacity:1" fill="#f28219" d="M 571.5,536.5 C 573.364,535.207 575.364,535.207 577.5,536.5C 576.675,537.386 575.675,537.719 574.5,537.5C 573.791,536.596 572.791,536.263 571.5,536.5 Z"/></g>
<g><path style="opacity:1" fill="#f28219" d="M 694.5,591.5 C 730.085,623.096 739.252,661.096 722,705.5C 709.833,728.333 692.333,745.833 669.5,758C 642.256,772.456 613.256,780.79 582.5,783C 567.518,784.298 552.518,784.632 537.5,784C 507.773,782.061 478.106,779.394 448.5,776C 415.457,772.15 383.457,776.15 352.5,788C 341.231,792.878 331.064,799.378 322,807.5C 318.649,760.208 334.815,721.041 370.5,690C 411.764,655.033 459.098,642.7 512.5,653C 532.872,658.176 553.205,663.51 573.5,669C 600.847,675.879 627.847,674.879 654.5,666C 686.002,651.176 699.335,626.342 694.5,591.5 Z"/></g>
<g><path style="opacity:1" fill="#faf8f7" d="M 429.5,688.5 C 449.142,688.395 467.809,692.561 485.5,701C 469.908,702.97 455.908,708.636 443.5,718C 440.269,720.727 437.603,723.894 435.5,727.5C 446.422,728.918 457.089,731.418 467.5,735C 483.318,742.076 498.985,749.41 514.5,757C 523.232,760.799 532.232,763.799 541.5,766C 511.207,762.356 480.874,758.689 450.5,755C 415.805,752.059 382.805,758.059 351.5,773C 346.074,776.129 340.907,779.629 336,783.5C 342.622,746.902 361.789,719.069 393.5,700C 405.011,694.217 417.011,690.384 429.5,688.5 Z"/></g>
<g><path style="opacity:1" fill="#f28219" d="M 681.5,715.5 C 684.778,716.941 687.944,718.608 691,720.5C 691.756,722.809 691.256,724.809 689.5,726.5C 683.299,728.261 678.632,731.928 675.5,737.5C 672.843,738.259 670.177,738.926 667.5,739.5C 665.047,735.796 662.881,735.796 661,739.5C 659.676,738.12 658.343,737.786 657,738.5C 655.336,735.711 655.17,732.877 656.5,730C 657.449,729.383 658.282,729.549 659,730.5C 662.05,726.905 665.216,723.405 668.5,720C 672.833,718.181 677.167,716.681 681.5,715.5 Z"/></g>
</svg>
